<svg width="16" height="21" viewBox="0 0 16 21" fill="none" xmlns="http://www.w3.org/2000/svg">
    <path d="M8 0C6.67392 0 5.40215 0.526784 4.46447 1.46447C3.52678 2.40215 3 3.67392 3 5V7H2C1.46957 7 0.960859 7.21071 0.585786 7.58579C0.210714 7.96086 0 8.46957 0 9V19C0 19.5304 0.210714 20.0391 0.585786 20.4142C0.960859 20.7893 1.46957 21 2 21H14C14.5304 21 15.0391 20.7893 15.4142 20.4142C15.7893 20.0391 16 19.5304 16 19V9C16 8.46957 15.7893 7.96086 15.4142 7.58579C15.0391 7.21071 14.5304 7 14 7H13V5C13 4.34339 12.8707 3.69321 12.6194 3.08658C12.3681 2.47995 11.9998 1.92876 11.5355 1.46447C11.0712 1.00017 10.52 0.631876 9.91342 0.380602C9.30679 0.129329 8.65661 0 8 0ZM8 1.9C9.71 1.9 11.1 3.29 11.1 5V7H4.9V5C4.9 3.29 6.29 1.9 8 1.9ZM8.19 9.5C9.13 9.5 9.88 9.71 10.42 10.12C10.96 10.54 11.23 11.1 11.23 11.8C11.23 12.24 11.08 12.63 10.79 13C10.5 13.36 10.12 13.64 9.66 13.85C9.4 14 9.23 14.15 9.14 14.32C9.05 14.5 9 14.72 9 15H7C7 14.5 7.1 14.16 7.29 13.92C7.5 13.68 7.84 13.4 8.36 13.08C8.62 12.94 8.83 12.76 9 12.54C9.14 12.33 9.22 12.08 9.22 11.8C9.22 11.5 9.13 11.28 8.95 11.11C8.77 10.93 8.5 10.85 8.19 10.85C7.92 10.85 7.7 10.92 7.5 11.06C7.34 11.2 7.24 11.41 7.24 11.69H5.27C5.22 11 5.5 10.4 6.05 10.04C6.59 9.68 7.3 9.5 8.19 9.5ZM7 16H9V18H7V16Z" fill="#05655D"/>
</svg>
